<svg xmlns="http://www.w3.org/2000/svg" viewBox="0 0 24 24"><g id="Species_Base_Game_" data-name="Species (Base Game)"><g id="Mamenchisaurus"><path id="Mamenchisaurus-2" data-name="Mamenchisaurus" d="M20.22.259,20.213.2a.2.2,0,0,0-.229-.127A.682.682,0,0,1,19.75.057a.267.267,0,0,0-.34.008c-.041.029-.084.07-.135.068a.444.444,0,0,0-.346.182c-.066.091-.172.137-.245.22a4.036,4.036,0,0,0-.758.725,1.808,1.808,0,0,0-.349.488.184.184,0,0,0-.059.082,12.632,12.632,0,0,0-.626,1.307c-.126.308-.255.616-.357.934-.123.316-.235.636-.33.962-.117.352-.233.705-.351,1.057-.072.215-.147.43-.221.645,0,.016.02.012.029.02h0l-.029-.02-.229.609c-.014.031-.029.062-.042.093-.149.392-.285.79-.45,1.175-.416.972-.827,1.947-1.328,2.88-.256.478-.5.964-.783,1.427a12.707,12.707,0,0,1-1.043,1.5c-.135.166-.268.335-.388.513a3,3,0,0,1-.267.25l-.225.155c-.092.034-.186.065-.275.1s-.169.028-.238.084l-.658.347a4.2,4.2,0,0,0-.386.232,2.571,2.571,0,0,0-.476.319.229.229,0,0,0-.082.06,2.073,2.073,0,0,1-.6.347,1.584,1.584,0,0,0-.463.29.286.286,0,0,0-.1.079h0a2.86,2.86,0,0,1-.331.228c-.151.08-.285.186-.44.26-.533.253-1.064.509-1.6.763a2.619,2.619,0,0,1-.83.248c-.176.02-.352.044-.528.068-.039.005-.091.011-.094.062s.048.056.088.064a5.209,5.209,0,0,0,.672.059,2.458,2.458,0,0,0,.847.015c.213-.02.426-.038.636-.077a.62.62,0,0,0,.205-.024,1.353,1.353,0,0,1,.452.047c.058.019.083.047.069.112a1.724,1.724,0,0,0-.028.436q-.01.5-.023,1a.285.285,0,0,0-.022.135,1.668,1.668,0,0,0-.137.442,1.637,1.637,0,0,0,.017.592,2.7,2.7,0,0,1-.143.79.667.667,0,0,0-.023.441c.022.154.023.156.177.162a.807.807,0,0,1,.088.021c.131.023.265,0,.4.037,0,0,.013,0,.017-.008.049-.052.115-.047.179-.056s.181.034.226-.078c0-.011.03-.013.047-.019h.02a.311.311,0,0,1,.147.031c.064.034.091.008.084-.058a.15.15,0,0,0-.025-.1.651.651,0,0,0-.268-.326c-.014-.1-.088-.183-.1-.286-.013-.067-.026-.133-.038-.2a.362.362,0,0,0,.014-.07,2.11,2.11,0,0,1,.138-.684.51.51,0,0,0,.048-.2c.019-.078.033-.159.058-.237.053-.167.112-.333.168-.5a.521.521,0,0,0,.059-.14c.033-.075.086-.088.139-.03a.518.518,0,0,0,.562.188c.04,0,.074-.039.117-.016,0,.046,0,.091,0,.137l-.078.166a.775.775,0,0,0-.037.083,1.928,1.928,0,0,0-.05.756,7.127,7.127,0,0,0-.156.972c-.022.214-.02.214.176.313l.026.016a.674.674,0,0,1,.19.063.045.045,0,0,0,.071-.01c.031-.074.093-.05.147-.055.056.028.038.078.037.124,0,.117-.057.231-.016.35.008.174.014.347.025.52a.224.224,0,0,0,.061.167.125.125,0,0,0,.1.03c.043,0,.1-.018.129,0a.211.211,0,0,0,.218-.007h.1c.049.036.114.017.16.04.1.049.163.041.209-.062.094.018.2-.029.286.039.026.019.049-.006.042-.034-.021-.105.044-.087.106-.081s.108.056.141.011-.018-.106-.033-.161a.176.176,0,0,0-.028-.041.443.443,0,0,0-.149-.14c-.038-.111-.159-.16-.2-.267a.9.9,0,0,1-.079-.314h0c0-.039,0-.078,0-.117a.414.414,0,0,0-.017-.152h0l-.005-.053c-.007-.173-.049-.342-.073-.514a4.6,4.6,0,0,1-.025-.724c0-.039.014-.083-.021-.116-.007-.081-.015-.162-.022-.244.039-.046.033-.106.046-.161a1.159,1.159,0,0,1,.183-.367,1.051,1.051,0,0,0,.076-.13q.025-.051.051-.1a.374.374,0,0,1,.131-.188c.155-.1.306-.2.459-.3a.279.279,0,0,0,.109-.061h0a.392.392,0,0,0,.155-.105c.048.03.047.082.05.127.027.344.068.688.068,1.035a2.286,2.286,0,0,0-.038.445c-.018.49.072.977.044,1.467l-.067.445a.315.315,0,0,0,.166.462c.072.029.144.06.217.087.035.013.084.028.09-.027.008-.076.06-.058.1-.064.042.02.092.016.133.043.1.065.1.063.117-.058L12,23.524c.087.023.18-.008.265.04.032.017.049-.015.036-.047s-.019-.076.039-.089c.03-.008.021-.037.013-.06a.3.3,0,0,0-.063-.114l-.039-.062-.024-.061a.3.3,0,0,0-.047-.119l-.039-.31v-.021l-.018-.471a6.491,6.491,0,0,1,.039-.8,3.651,3.651,0,0,0-.037-.716,3.911,3.911,0,0,0,.043-.507c.017-.162.031-.325.052-.487a4.627,4.627,0,0,1,.216-.765.775.775,0,0,0,.073-.311,2.415,2.415,0,0,0-.01-.57c-.045-.241-.088-.482-.131-.722l0-.343a3.178,3.178,0,0,1,.246-.559A27.05,27.05,0,0,0,14.1,13.765c.342-.734.7-1.46.991-2.215.271-.678.54-1.356.774-2.048.262-.775.532-1.548.742-2.34.029-.114.058-.229.088-.343.019-.058.043-.115.058-.174.212-.844.462-1.677.74-2.5a12.619,12.619,0,0,1,.558-1.451c.136-.284.308-.546.466-.816.037-.053.073-.107.112-.158a1.5,1.5,0,0,1,.605-.516A.745.745,0,0,0,19.51,1.1a.474.474,0,0,1,.224-.111c.094-.073.24-.034.312-.151.136-.151.14-.186.033-.309C20.137.442,20.25.388,20.22.259Z" style="fill:#fff"/><rect id="Bounds" width="24" height="24" style="fill:none"/></g></g></svg>